<?xml version="1.0" encoding="UTF-8"?>
<svg version="1.1" xmlns="http://www.w3.org/2000/svg" width="391" height="88">
<path d="M0 0 C5.37722282 2.50318993 9.59391956 5.03452761 14 9 C14 8.34 14 7.68 14 7 C16.1171875 5.2734375 16.1171875 5.2734375 18.875 3.375 C19.77992187 2.74335938 20.68484375 2.11171875 21.6171875 1.4609375 C24 0 24 0 26 0 C26.67408308 1.26691507 27.33900497 2.53870749 28 3.8125 C28.37125 4.52019531 28.7425 5.22789063 29.125 5.95703125 C30 8 30 8 30 11 C30.66 10.67 31.32 10.34 32 10 C33.54023996 9.93049459 35.08334988 9.91547643 36.625 9.9375 C37.85089844 9.95103516 37.85089844 9.95103516 39.1015625 9.96484375 C40.04128906 9.98224609 40.04128906 9.98224609 41 10 C41.38588205 17.51755409 40.79558608 23.96033763 38 31 C37.505 31.495 37.505 31.495 37 32 C37.61488281 32.33773437 38.22976562 32.67546875 38.86328125 33.0234375 C40.07564453 33.69246094 40.07564453 33.69246094 41.3125 34.375 C42.11300781 34.81585938 42.91351563 35.25671875 43.73828125 35.7109375 C45.53527943 36.73513335 47.27900708 37.85267138 49 39 C49 42 49 42 47.6015625 43.46484375 C40.10619661 49.04933573 32.52615302 53.0931651 23 52 C19.25 50.625 19.25 50.625 16 49 C15.195625 48.608125 14.39125 48.21625 13.5625 47.8125 C13.046875 47.544375 12.53125 47.27625 12 47 C11.071875 47.639375 10.14375 48.27875 9.1875 48.9375 C4.09523689 52.23249377 -0.08923367 52.63850871 -6 52 C-13.18004321 50.16066794 -19.0832334 46.57599787 -24 41 C-24 40.34 -24 39.68 -24 39 C-22.04775792 37.71593601 -20.03659238 36.52058322 -18 35.375 C-16.88625 34.74335937 -15.7725 34.11171875 -14.625 33.4609375 C-13.325625 32.73777344 -13.325625 32.73777344 -12 32 C-12.495 30.96875 -12.99 29.9375 -13.5 28.875 C-15.83899743 22.79141044 -15.24310367 16.41073369 -15 10 C-7.25 9.875 -7.25 9.875 -5 11 C-4.731875 9.9275 -4.46375 8.855 -4.1875 7.75 C-3.13772173 4.43491072 -2.25387672 2.56122354 0 0 Z M1 4 C-1.2013866 7.80427492 -1.2013866 7.80427492 -2 12 C-0.76115681 12.72767003 0.49168341 13.43154815 1.75 14.125 C2.44609375 14.51945312 3.1421875 14.91390625 3.859375 15.3203125 C6.01001768 16.22918445 6.01001768 16.22918445 8.203125 15.3046875 C10.309447 14.04144145 10.309447 14.04144145 11 11 C9.52312468 9.83043409 8.04343707 8.66441854 6.5625 7.5 C5.32693359 6.52546875 5.32693359 6.52546875 4.06640625 5.53125 C2.29474471 3.9007712 2.29474471 3.9007712 1 4 Z M18.875 7.5 C18.15054688 8.1496875 17.42609375 8.799375 16.6796875 9.46875 C16.12539063 9.9740625 15.57109375 10.479375 15 11 C15.66 12.98 16.32 14.96 17 17 C20.3 15.35 23.6 13.7 27 12 C26.16537965 7.28941438 26.16537965 7.28941438 25 4 C22.05645643 4 21.02421163 5.55877659 18.875 7.5 Z M-12 13 C-12.31617255 19.63962365 -11.64188422 24.86754336 -9 31 C-7.93354885 32.29633621 -7.93354885 32.29633621 -5.4375 32.0625 C-4.2309375 32.0315625 -4.2309375 32.0315625 -3 32 C-3.31710938 31.31550781 -3.63421875 30.63101563 -3.9609375 29.92578125 C-5.14116957 26.60249621 -5.41197245 23.70245465 -5.625 20.1875 C-5.69976563 19.02605469 -5.77453125 17.86460938 -5.8515625 16.66796875 C-5.90054687 15.78753906 -5.94953125 14.90710937 -6 14 C-8.97 13.505 -8.97 13.505 -12 13 Z M31 15 C31.02320313 15.64066406 31.04640625 16.28132813 31.0703125 16.94140625 C31.18440863 22.40987096 30.79791904 26.83098277 29 32 C31.41585574 31.96906827 31.41585574 31.96906827 34 31 C37.95512257 25.77358803 37.70401235 19.30759887 38 13 C34.89448334 13 33.64738916 13.5393715 31 15 Z M-3 15 C-3.62119246 24.0163857 -3.62119246 24.0163857 0 32 C3.06361777 33.43968727 3.06361777 33.43968727 6 34 C5.98839844 33.41992188 5.97679687 32.83984375 5.96484375 32.2421875 C5.91237826 27.7001754 6.08248937 23.47286431 7 19 C5.906875 18.34 4.81375 17.68 3.6875 17 C3.07261719 16.62875 2.45773438 16.2575 1.82421875 15.875 C-0.11361926 14.78376001 -0.11361926 14.78376001 -3 15 Z M12 15 C11.34 16.32 10.68 17.64 10 19 C10.99 19.99 11.98 20.98 13 22 C13.66 21.34 14.32 20.68 15 20 C14.83333333 17.91666667 14.83333333 17.91666667 14 16 C13.34 15.67 12.68 15.34 12 15 Z M24.17578125 15.77734375 C23.56089844 16.16019531 22.94601563 16.54304688 22.3125 16.9375 C21.219375 17.618125 20.12625 18.29875 19 19 C19 23.95 19 28.9 19 34 C25.68007277 32.88755867 25.68007277 32.88755867 27.33984375 30.08203125 C27.53707031 29.33308594 27.73429687 28.58414063 27.9375 27.8125 C28.14890625 27.01585937 28.3603125 26.21921875 28.578125 25.3984375 C29.14630193 22.16824642 29.2088007 19.27121103 29 16 C26.17133075 14.68887926 26.17133075 14.68887926 24.17578125 15.77734375 Z M16 22 C14.83447381 26.19589427 14.91045968 26.82091936 17 31 C17 28.03 17 25.06 17 22 C16.67 22 16.34 22 16 22 Z M9 23 C9 25.31 9 27.62 9 30 C10.12516085 28.16715557 10.12516085 28.16715557 11 26 C10.67 25.01 10.34 24.02 10 23 C9.67 23 9.34 23 9 23 Z M12 29 C12 31.64 12 34.28 12 37 C12.33 37 12.66 37 13 37 C13 34.36 13 31.72 13 29 C12.67 29 12.34 29 12 29 Z M-5 35 C-3.35 36.32 -1.7 37.64 0 39 C0.66 38.67 1.32 38.34 2 38 C0.7511573 36.4166747 0.7511573 36.4166747 -1 35 C-2.32 35 -3.64 35 -5 35 Z M26 35 C24.22590192 36.92022703 24.22590192 36.92022703 23 39 C25.02045442 38.39816251 27.02111039 37.72693904 29 37 C29.33 36.34 29.66 35.68 30 35 C28.68 35 27.36 35 26 35 Z M34 35 C33.60167969 35.40992188 33.20335938 35.81984375 32.79296875 36.2421875 C27.55633189 41.56801283 22.26254706 42.30832885 15 43 C18.71725412 46.89162425 21.49420068 48.8183175 27.03515625 49.10546875 C33.6541193 48.79028003 38.75483403 45.9234674 44 42 C44.33 41.34 44.66 40.68 45 40 C43.35538655 39.16426177 41.70927487 38.33147118 40.0625 37.5 C39.14597656 37.0359375 38.22945312 36.571875 37.28515625 36.09375 C35.27190308 34.92804529 35.27190308 34.92804529 34 35 Z M-10 35 C-13.96 36.98 -13.96 36.98 -18 39 C-18 39.99 -18 40.98 -18 42 C-12.30202643 46.76769217 -7.03928141 49.38433209 0.5625 48.875 C4.95076474 48.25883954 7.5930225 46.79546871 11 44 C11 43.67 11 43.34 11 43 C10.23816406 42.92523438 9.47632812 42.85046875 8.69140625 42.7734375 C1.06422773 41.8021863 -4.00529184 39.81393231 -10 35 Z " fill="#FFFFFF" transform="translate(32,19)"/>
<path d="M0 0 C1.98 0 3.96 0 6 0 C6.495 4.455 6.495 4.455 7 9 C8.4025 8.896875 9.805 8.79375 11.25 8.6875 C15.11484254 8.65706817 15.65073592 8.65925455 18.5625 11.5 C19.036875 12.325 19.51125 13.15 20 14 C20.66 13.175 21.32 12.35 22 11.5 C25.07568212 8.93693156 25.53212766 8.63837364 29.25 8.625 C33 9 33 9 34 10 C34.33 6.7 34.66 3.4 35 0 C36.98 0 38.96 0 41 0 C41 10.23 41 20.46 41 31 C38.33333333 31 35.66666667 31 33 31 C32.236875 31.226875 31.47375 31.45375 30.6875 31.6875 C26.98517127 32.11800334 25.11817051 30.94019498 22 29 C21.34 28.01 20.68 27.02 20 26 C19.46375 26.804375 18.9275 27.60875 18.375 28.4375 C16 31 16 31 13 31.9375 C9.9333422 32.0013887 8.532107 31.65560842 6 30 C5.67 30.33 5.34 30.66 5 31 C3.31391034 31.07205511 1.62499341 31.08386068 -0.0625 31.0625 C-0.98160156 31.05347656 -1.90070313 31.04445313 -2.84765625 31.03515625 C-3.55792969 31.02355469 -4.26820313 31.01195313 -5 31 C-5.66 28.69 -6.32 26.38 -7 24 C-10.63 24 -14.26 24 -18 24 C-18.66 26.31 -19.32 28.62 -20 31 C-21.98 31 -23.96 31 -26 31 C-23.24809142 21.12550449 -19.59872163 11.58969974 -16 2 C-13.69 2 -11.38 2 -9 2 C-6.36 9.26 -3.72 16.52 -1 24 C-0.67 16.08 -0.34 8.16 0 0 Z M-13 9 C-13.99 11.97 -14.98 14.94 -16 18 C-13.69 18 -11.38 18 -9 18 C-9.99 15.03 -10.98 12.06 -12 9 C-12.33 9 -12.66 9 -13 9 Z M6 15 C5.52209482 17.36284864 5.52209482 17.36284864 5.625 20 C5.61726563 20.886875 5.60953125 21.77375 5.6015625 22.6875 C5.73304688 23.450625 5.86453125 24.21375 6 25 C8.68873941 27.24586971 8.68873941 27.24586971 11.0625 26.8125 C13.35993538 26.0589579 13.35993538 26.0589579 15 23 C15.50010524 20.04230823 15.50010524 20.04230823 15 17 C13.24934167 14.58140803 13.24934167 14.58140803 11 13 C8.67642489 12.81509993 8.67642489 12.81509993 6 15 Z M27.359375 14.203125 C25.64953331 16.46326057 25.59722963 17.7530642 25.625 20.5625 C25.61726563 21.34753906 25.60953125 22.13257813 25.6015625 22.94140625 C25.73304688 23.62074219 25.86453125 24.30007812 26 25 C28.76745084 27.30075262 28.76745084 27.30075262 31.625 26.75 C32.40875 26.5025 33.1925 26.255 34 26 C35.12256131 23.75487738 35.13413762 22.48543351 35.125 20 C35.12757813 19.29875 35.13015625 18.5975 35.1328125 17.875 C35.11377236 15.90846225 35.11377236 15.90846225 34 14 C30.5210582 12.73791964 30.5210582 12.73791964 27.359375 14.203125 Z " fill="#FFFFFF" transform="translate(296,14)"/>
<path d="M0 0 C11.4883507 6.50842186 19.73955708 16.3188869 23.484375 29.125 C26.42668305 42.54027867 23.74935825 54.79234921 16.73046875 66.546875 C11.29632283 74.53826606 2.33304491 80.96845848 -6.859375 83.91796875 C-20.64402533 86.46015512 -33.47709191 85.58214577 -45.51953125 78.16015625 C-55.94448999 70.95350864 -62.31427403 60.784504 -65.26953125 48.546875 C-66.46691754 35.13893315 -64.52319983 23.81672219 -56.2421875 12.86328125 C-42.40142987 -3.38933118 -19.73502987 -9.08883652 0 0 Z M-54.546875 16.1953125 C-61.09862366 25.13896941 -63.01944576 35.65037037 -61.8046875 46.52734375 C-59.60122177 58.96003725 -53.34258177 68.09167942 -43.26953125 75.546875 C-33.13932794 81.76445676 -22.12322192 82.90140348 -10.4609375 81.1171875 C0.7316211 78.21607631 9.61600002 71.25215201 15.73046875 61.546875 C21.10557931 50.65602599 22.74333845 39.19790065 19.23046875 27.359375 C14.779056 15.68608982 7.18989179 7.54457703 -4.046875 2.234375 C-23.04103847 -5.10833517 -41.75797493 0.99101381 -54.546875 16.1953125 Z " fill="#FFFFFF" transform="translate(65.26953125,3.453125)"/>
<path d="M0 0 C94.38 0 188.76 0 286 0 C286 0.99 286 1.98 286 3 C191.62 3 97.24 3 0 3 C0 2.01 0 1.02 0 0 Z " fill="#FFFFFF" transform="translate(105,58)"/>
<path d="M0 0 C1.98 0 3.96 0 6 0 C6.33 6.93 6.66 13.86 7 21 C8.32 20.01 9.64 19.02 11 18 C13.359375 17.48828125 13.359375 17.48828125 15.75 17.3125 C16.54921875 17.24675781 17.3484375 17.18101563 18.171875 17.11328125 C18.77515625 17.07589844 19.3784375 17.03851562 20 17 C20 16.01 20 15.02 20 14 C16.7 14.33 13.4 14.66 10 15 C9.67 13.35 9.34 11.7 9 10 C11.58008592 8.70995704 13.55741574 8.79589776 16.4375 8.75 C17.88962891 8.71132813 17.88962891 8.71132813 19.37109375 8.671875 C22 9 22 9 23.64599609 10.24243164 C25.36365316 12.47204095 25.34913627 13.65956507 25.29296875 16.44921875 C25.28330078 17.29677734 25.27363281 18.14433594 25.26367188 19.01757812 C25.23853516 19.89865234 25.21339844 20.77972656 25.1875 21.6875 C25.16719727 23.02651367 25.16719727 23.02651367 25.14648438 24.39257812 C25.11114079 26.59566166 25.06180493 28.79752582 25 31 C24.22527344 30.814375 23.45054687 30.62875 22.65234375 30.4375 C19.98124922 29.75848241 19.98124922 29.75848241 17.5625 31 C14.29663232 32.27448495 12.34987362 31.89329963 9 31 C8.34 30.34 7.68 29.68 7 29 C6.67 29.66 6.34 30.32 6 31 C4.02 31 2.04 31 0 31 C0 20.77 0 10.54 0 0 Z M12 23 C12.33 24.32 12.66 25.64 13 27 C15.41645782 27.16687448 15.41645782 27.16687448 18 27 C18.66 26.34 19.32 25.68 20 25 C20 23.68 20 22.36 20 21 C16.28400809 20.79913557 15.22791555 20.8480563 12 23 Z " fill="#FFFFFF" transform="translate(366,14)"/>
<path d="M0 0 C16.38461538 0 16.38461538 0 21 4 C23.76021681 8.71908034 24.66602407 12.57666117 24 18 C23.0311191 20.96138173 21.97128143 23.57542926 20 26 C14 29 14 29 0 29 C0 19.43 0 9.86 0 0 Z M5 5 C5 11.27 5 17.54 5 24 C11.20170466 24.41594656 11.20170466 24.41594656 16 22 C18.47171328 18.11587913 18.17841525 14.42390525 17.52734375 10.02734375 C17.10226394 7.86092572 17.10226394 7.86092572 15.4375 5.9375 C12.19080133 4.52136123 12.19080133 4.52136123 5 5 Z " fill="#FFFFFF" transform="translate(106,16)"/>
<path d="M0 0 C1.98 0 3.96 0 6 0 C6 3.63 6 7.26 6 11 C9.96 11 13.92 11 18 11 C18 7.37 18 3.74 18 0 C19.98 0 21.96 0 24 0 C24 9.57 24 19.14 24 29 C22.02 29 20.04 29 18 29 C18 24.71 18 20.42 18 16 C14.04 16 10.08 16 6 16 C6 20.29 6 24.58 6 29 C4.02 29 2.04 29 0 29 C0 19.43 0 9.86 0 0 Z " fill="#FFFFFF" transform="translate(179,16)"/>
<path d="M0 0 C0.66 0 1.32 0 2 0 C2 0.99 2 1.98 2 3 C6.29 3 10.58 3 15 3 C15.33 4.65 15.66 6.3 16 8 C16.66 7.67 17.32 7.34 18 7 C17.34 6.67 16.68 6.34 16 6 C16 5.01 16 4.02 16 3 C19.375 2.875 19.375 2.875 23 3 C25 5 25 5 25.1953125 7.1640625 C25.17210937 7.97617188 25.14890625 8.78828125 25.125 9.625 C25.10695313 10.44226563 25.08890625 11.25953125 25.0703125 12.1015625 C25.04710937 12.72804688 25.02390625 13.35453125 25 14 C20.34462607 14.83796731 16.62921525 15.0161692 12 14 C12 11.36 12 8.72 12 6 C11.01 6.33 10.02 6.66 9 7 C8.67 9.31 8.34 11.62 8 14 C2.375 15.125 2.375 15.125 -1 14 C-2.95960302 14.252852 -4.9201115 14.50778395 -6.8671875 14.84375 C-9 15 -9 15 -14 14 C-14 10.37 -14 6.74 -14 3 C-13.01 3 -12.02 3 -11 3 C-10.67 4.65 -10.34 6.3 -10 8 C-10 7.34 -10 6.68 -10 6 C-10 5.01 -10 4.02 -10 3 C-7.98177083 3.09765625 -5.96354167 3.1953125 -3.9453125 3.29296875 C-2.98238281 3.14794922 -2.98238281 3.14794922 -2 3 C-1.34 2.01 -0.68 1.02 0 0 Z M-2 6 C-2 7.98 -2 9.96 -2 12 C-1.67 12 -1.34 12 -1 12 C-1 10.02 -1 8.04 -1 6 C-1.33 6 -1.66 6 -2 6 Z M2 6 C2 7.65 2 9.3 2 11 C2.99 11.33 3.98 11.66 5 12 C5 10.02 5 8.04 5 6 C4.01 6 3.02 6 2 6 Z M-8 10 C-8 10.66 -8 11.32 -8 12 C-7.01 11.67 -6.02 11.34 -5 11 C-5.99 10.67 -6.98 10.34 -8 10 Z M18 10 C18 10.66 18 11.32 18 12 C19.32 11.67 20.64 11.34 22 11 C20.68 10.67 19.36 10.34 18 10 Z " fill="#FFFFFF" transform="translate(234,69)"/>
<path d="M0 0 C1.45212891 -0.03867187 1.45212891 -0.03867187 2.93359375 -0.078125 C5.5625 0.25 5.5625 0.25 7.34765625 1.515625 C10.21178388 5.60460463 9.6841534 10.18582311 9.625 15 C9.62048828 15.69738281 9.61597656 16.39476563 9.61132812 17.11328125 C9.5996002 18.82555803 9.58166653 20.53779033 9.5625 22.25 C6.89583333 22.25 4.22916667 22.25 1.5625 22.25 C0.139375 22.5903125 0.139375 22.5903125 -1.3125 22.9375 C-4.4375 23.25 -4.4375 23.25 -7.25 22.1875 C-9.4375 20.25 -9.4375 20.25 -10.5625 17.375 C-10.4375 14.25 -10.4375 14.25 -8.5625 11.4375 C-4.53809178 8.62041424 -1.2545411 8.36544107 3.5625 8.25 C3.5625 7.26 3.5625 6.27 3.5625 5.25 C0.2625 5.58 -3.0375 5.91 -6.4375 6.25 C-6.7675 4.6 -7.0975 2.95 -7.4375 1.25 C-4.85741408 -0.04004296 -2.88008426 0.04589776 0 0 Z M-4.4375 14.25 C-4.1075 15.57 -3.7775 16.89 -3.4375 18.25 C-1.02104218 18.41687448 -1.02104218 18.41687448 1.5625 18.25 C2.2225 17.59 2.8825 16.93 3.5625 16.25 C3.5625 14.93 3.5625 13.61 3.5625 12.25 C-0.15349191 12.04913557 -1.20958445 12.0980563 -4.4375 14.25 Z " fill="#FFFFFF" transform="translate(347.4375,22.75)"/>
<path d="M0 0 C6 0 6 0 8.25 2 C12.33125053 4.9681822 16.11783264 4.31107615 21 4 C24.33333333 4 27.66666667 4 31 4 C31 9.28 31 14.56 31 20 C30.01 20 29.02 20 28 20 C27.938125 19.38125 27.87625 18.7625 27.8125 18.125 C27.16768594 15.8119628 27.16768594 15.8119628 24.875 14.625 C21.0957489 13.80342367 18.673534 14.9043846 15 16 C11.5625 15.625 11.5625 15.625 9 15 C9 14.01 9 13.02 9 12 C10.65 12 12.3 12 14 12 C10.91440696 9.73118159 9.57790624 8.94548054 5.6875 9.3125 C4.3571875 9.6528125 4.3571875 9.6528125 3 10 C3 11.65 3 13.3 3 15 C2.01 15 1.02 15 0 15 C0 10.05 0 5.1 0 0 Z M3 3 C3 4.32 3 5.64 3 7 C4.32 6.67 5.64 6.34 7 6 C7 5.34 7 4.68 7 4 C5.68 3.67 4.36 3.34 3 3 Z M13 6 C13 6.66 13 7.32 13 8 C15.475 8.99 15.475 8.99 18 10 C17.67 8.68 17.34 7.36 17 6 C15.68 6 14.36 6 13 6 Z M25 7 C24.67 8.65 24.34 10.3 24 12 C25.32 12 26.64 12 28 12 C28 10.35 28 8.7 28 7 C27.01 7 26.02 7 25 7 Z " fill="#FFFFFF" transform="translate(177,68)"/>
<path d="M0 0 C3.69059994 0.87426509 5.13063077 2.36922768 7.16015625 5.51171875 C7.55451003 8.318895 7.40233271 10.65403648 7.16015625 13.51171875 C0.72515625 14.00671875 0.72515625 14.00671875 -5.83984375 14.51171875 C-3.25417734 17.78302756 -3.25417734 17.78302756 -0.359375 17.5859375 C0.53394531 17.45832031 1.42726562 17.33070312 2.34765625 17.19921875 C3.24871094 17.07933594 4.14976562 16.95945312 5.078125 16.8359375 C5.76519531 16.72894531 6.45226562 16.62195313 7.16015625 16.51171875 C6.50015625 18.49171875 5.84015625 20.47171875 5.16015625 22.51171875 C-3.7361043 24.01955952 -3.7361043 24.01955952 -7.83984375 21.51171875 C-10.43837692 19.26433871 -11.6480312 17.57556801 -12.26171875 14.171875 C-12.49040181 9.94759072 -12.33916685 6.4488803 -9.90234375 2.88671875 C-6.32804129 0.11481072 -4.42465183 -0.33240289 0 0 Z M-3.83984375 4.51171875 C-5.61394183 6.43194578 -5.61394183 6.43194578 -6.83984375 8.51171875 C-3.86984375 8.51171875 -0.89984375 8.51171875 2.16015625 8.51171875 C1.50015625 7.19171875 0.84015625 5.87171875 0.16015625 4.51171875 C-1.15984375 4.51171875 -2.47984375 4.51171875 -3.83984375 4.51171875 Z " fill="#FFFFFF" transform="translate(243.83984375,22.48828125)"/>
<path d="M0 0 C1.28197266 -0.05607422 1.28197266 -0.05607422 2.58984375 -0.11328125 C5.0625 0.3125 5.0625 0.3125 7.36328125 1.75390625 C9.91325574 5.59352301 9.49519062 9.06550017 9.3125 13.5625 C9.29445312 14.40296875 9.27640625 15.2434375 9.2578125 16.109375 C9.21080798 18.17757395 9.13906724 20.24518441 9.0625 22.3125 C7.7425 22.3125 6.4225 22.3125 5.0625 22.3125 C5.0625 21.6525 5.0625 20.9925 5.0625 20.3125 C4.19625 20.828125 3.33 21.34375 2.4375 21.875 C-1.38829771 23.50450643 -3.01256853 23.53358979 -6.9375 22.3125 C-8.8125 21.125 -8.8125 21.125 -9.9375 19.3125 C-10.45336267 15.84885063 -10.36146767 14.02553653 -8.5625 11 C-4.60914537 8.45855774 -0.55482442 8.48873376 4.0625 8.3125 C3.4025 7.3225 2.7425 6.3325 2.0625 5.3125 C-0.5775 5.6425 -3.2175 5.9725 -5.9375 6.3125 C-6.5975 4.6625 -7.2575 3.0125 -7.9375 1.3125 C-5.06927682 0.35642561 -2.99505254 0.08557293 0 0 Z M-3.9375 14.3125 C-3.6075 15.6325 -3.2775 16.9525 -2.9375 18.3125 C-0.9575 17.9825 1.0225 17.6525 3.0625 17.3125 C3.3925 15.6625 3.7225 14.0125 4.0625 12.3125 C0.34650809 12.11163557 -0.70958445 12.1605563 -3.9375 14.3125 Z " fill="#FFFFFF" transform="translate(213.9375,22.6875)"/>
<path d="M0 0 C1.29550781 -0.03867187 1.29550781 -0.03867187 2.6171875 -0.078125 C5.86648821 0.34701715 7.03492041 0.6735194 9.125 3.25 C9.62052365 6.4908027 9.49933117 9.66902486 9.375 12.9375 C9.35695312 13.83017578 9.33890625 14.72285156 9.3203125 15.64257812 C9.27317759 17.84613504 9.20740657 20.04752601 9.125 22.25 C7.805 22.25 6.485 22.25 5.125 22.25 C5.125 21.59 5.125 20.93 5.125 20.25 C4.25875 20.765625 3.3925 21.28125 2.5 21.8125 C-1.33189279 23.44460249 -2.95740753 23.55586416 -6.875 22.25 C-9.15105184 20.12568495 -9.77718604 18.80893694 -10.3125 15.75 C-9.875 13.25 -9.875 13.25 -8.5 11 C-4.56035035 8.3735669 -0.52145355 8.42734556 4.125 8.25 C3.465 7.26 2.805 6.27 2.125 5.25 C-0.515 5.58 -3.155 5.91 -5.875 6.25 C-6.205 4.6 -6.535 2.95 -6.875 1.25 C-4.43545342 0.03022671 -2.72194151 0.04846187 0 0 Z M-3.875 14.25 C-3.545 15.57 -3.215 16.89 -2.875 18.25 C-0.895 17.92 1.085 17.59 3.125 17.25 C3.455 15.6 3.785 13.95 4.125 12.25 C0.40900809 12.04913557 -0.64708445 12.0980563 -3.875 14.25 Z " fill="#FFFFFF" transform="translate(152.875,22.75)"/>
<path d="M0 0 C2.875 1 2.875 1 4.265625 2.5546875 C5.79481842 4.20814188 5.79481842 4.20814188 8.1015625 4.2578125 C8.89304687 4.21398437 9.68453125 4.17015625 10.5 4.125 C11.95721251 4.05426153 13.41608313 4.00581242 14.875 4 C15.875 5 15.875 5 15.97265625 7.28515625 C15.96105469 8.20167969 15.94945312 9.11820313 15.9375 10.0625 C15.92847656 10.98160156 15.91945313 11.90070313 15.91015625 12.84765625 C15.89855469 13.55792969 15.88695312 14.26820312 15.875 15 C14.885 15 13.895 15 12.875 15 C12.875 12.36 12.875 9.72 12.875 7 C11.885 7 10.895 7 9.875 7 C9.875 9.64 9.875 12.28 9.875 15 C8.555 15 7.235 15 5.875 15 C5.545 14.34 5.215 13.68 4.875 13 C4.33875 13.515625 3.8025 14.03125 3.25 14.5625 C0.875 16 0.875 16 -2.1875 15.9375 C-5.125 15 -5.125 15 -7 13.3125 C-8.50685358 10.21507874 -8.68151279 8.40864082 -8.125 5 C-5.57998626 1.48189277 -4.43334243 0 0 0 Z M-4.125 4 C-4.125 6.64 -4.125 9.28 -4.125 12 C-2.145 12 -0.165 12 1.875 12 C1.875 9.36 1.875 6.72 1.875 4 C-1.17413228 2.98888907 -1.17413228 2.98888907 -4.125 4 Z " fill="#FFFFFF" transform="translate(270.125,68)"/>
<path d="M0 0 C1.98 0 3.96 0 6 0 C6.08706286 4.41654255 6.14041378 8.83286457 6.1875 13.25 C6.21263672 14.50425781 6.23777344 15.75851563 6.26367188 17.05078125 C6.27817383 18.85869141 6.27817383 18.85869141 6.29296875 20.703125 C6.31653442 22.36843262 6.31653442 22.36843262 6.34057617 24.06738281 C5.95833839 27.35873781 5.37035125 28.71110529 3 31 C-0.6875 31.75 -0.6875 31.75 -4 32 C-4.66 30.02 -5.32 28.04 -6 26 C-4.35 26 -2.7 26 -1 26 C-0.67 17.42 -0.34 8.84 0 0 Z " fill="#FFFFFF" transform="translate(225,23)"/>
<path d="M0 0 C1.98 0 3.96 0 6 0 C6 10.23 6 20.46 6 31 C4.02 31 2.04 31 0 31 C0 20.77 0 10.54 0 0 Z " fill="#FFFFFF" transform="translate(358,14)"/>
<path d="M0 0 C1.65 0 3.3 0 5 0 C5.33 0.66 5.66 1.32 6 2 C6.66 1.34 7.32 0.68 8 0 C11.125 -0.125 11.125 -0.125 14 0 C14 1.65 14 3.3 14 5 C11.69 5.33 9.38 5.66 7 6 C6.67 11.28 6.34 16.56 6 22 C4.02 22 2.04 22 0 22 C0 14.74 0 7.48 0 0 Z " fill="#FFFFFF" transform="translate(252,23)"/>
<path d="M0 0 C4.66666667 0 9.33333333 0 14 0 C14 1.65 14 3.3 14 5 C11.69 5.66 9.38 6.32 7 7 C6.67 11.95 6.34 16.9 6 22 C4.02 22 2.04 22 0 22 C0 14.74 0 7.48 0 0 Z " fill="#FFFFFF" transform="translate(131,23)"/>
<path d="M0 0 C6.0546875 -0.1953125 6.0546875 -0.1953125 8 0 C8.66 0.66 9.32 1.32 10 2 C10.66 1.34 11.32 0.68 12 0 C14.4375 -0.375 14.4375 -0.375 17 0 C18.8125 1.8125 18.8125 1.8125 20 4 C20 4.99 20 5.98 20 7 C19.01 7.33 18.02 7.66 17 8 C17.66 8 18.32 8 19 8 C19 8.99 19 9.98 19 11 C14.38926889 12.29676812 10.66159911 11.71109139 6 11 C6 8.36 6 5.72 6 3 C5.01 3 4.02 3 3 3 C3 5.64 3 8.28 3 11 C2.01 11 1.02 11 0 11 C0 7.37 0 3.74 0 0 Z " fill="#FFFFFF" transform="translate(295,72)"/>
<path d="M0 0 C0.99 0 1.98 0 3 0 C3.33 2.64 3.66 5.28 4 8 C4.66 8 5.32 8 6 8 C6.33 5.36 6.66 2.72 7 0 C7.99 0 8.98 0 10 0 C10 3.63 10 7.26 10 11 C3.375 12.25 3.375 12.25 0 10 C-0.29296875 7.6171875 -0.29296875 7.6171875 -0.1875 4.875 C-0.16042969 3.96492188 -0.13335937 3.05484375 -0.10546875 2.1171875 C-0.07066406 1.41851562 -0.03585938 0.71984375 0 0 Z " fill="#FFFFFF" transform="translate(209,72)"/>
<path d="M0 0 C2.31 0 4.62 0 7 0 C7 0.99 7 1.98 7 3 C6.01 3 5.02 3 4 3 C3.67 6.96 3.34 10.92 3 15 C2.01 15 1.02 15 0 15 C0 10.05 0 5.1 0 0 Z " fill="#FFFFFF" transform="translate(287,68)"/>
<path d="M0 0 C1.67542976 0.28604898 3.34385343 0.61781233 5 1 C5.625 2.875 5.625 2.875 6 5 C5.34 5.66 4.68 6.32 4 7 C1.375 6.625 1.375 6.625 -1 6 C-1.042721 4.33388095 -1.04063832 2.66617115 -1 1 C-0.67 0.67 -0.34 0.34 0 0 Z " fill="#FFFFFF" transform="translate(165,39)"/>
<path d="M0 0 C0.99 0 1.98 0 3 0 C3 3.63 3 7.26 3 11 C2.01 11 1.02 11 0 11 C0 7.37 0 3.74 0 0 Z " fill="#FFFFFF" transform="translate(291,72)"/>
<path d="M0 0 C1.65 0.33 3.3 0.66 5 1 C4.67 2.65 4.34 4.3 4 6 C2.35 5.67 0.7 5.34 -1 5 C-0.67 3.35 -0.34 1.7 0 0 Z " fill="#FFFFFF" transform="translate(226,15)"/>
<path d="M0 0 C1.32 0 2.64 0 4 0 C4 0.99 4 1.98 4 3 C2.68 2.67 1.36 2.34 0 2 C0 1.34 0 0.68 0 0 Z " fill="#FFFFFF" transform="translate(245,68)"/>
<path d="M0 0 C0.99 0 1.98 0 3 0 C3 0.99 3 1.98 3 3 C2.01 3 1.02 3 0 3 C0 2.01 0 1.02 0 0 Z " fill="#FFFFFF" transform="translate(220,68)"/>
<path d="M0 0 C0.99 0 1.98 0 3 0 C3 0.99 3 1.98 3 3 C2.01 3 1.02 3 0 3 C0 2.01 0 1.02 0 0 Z " fill="#FFFFFF" transform="translate(195,68)"/>
</svg>
