<?xml version="1.0" encoding="UTF-8"?>
<svg version="1.1" xmlns="http://www.w3.org/2000/svg" width="209" height="70">
<path d="M0 0 C0.40352176 3.77684011 0.4160049 5.45412529 -1.92773438 8.52954102 C-2.80751953 9.34608154 -3.68730469 10.16262207 -4.59375 11.00390625 C-5.54121094 11.90947266 -6.48867188 12.81503906 -7.46484375 13.74804688 C-8.47509719 14.68777566 -9.48683387 15.62591226 -10.5 16.5625 C-12.48393307 18.40345547 -14.44808544 20.25999137 -16.40625 22.12890625 C-17.28603516 22.94431885 -18.16582031 23.75973145 -19.07226562 24.59985352 C-21.15521268 26.83233673 -21.15521268 26.83233673 -21.56054688 29.50048828 C-20.78251483 32.96977924 -19.16768187 34.40005819 -16.625 36.86328125 C-15.72265625 37.74951172 -14.8203125 38.63574219 -13.890625 39.54882812 C-12.93671875 40.46083984 -11.9828125 41.37285156 -11 42.3125 C-10.03532198 43.25208992 -9.07176615 44.19283347 -8.109375 45.13476562 C-5.75038867 47.43477729 -3.38054213 49.72234034 -1 52 C4.60731123 49.57461221 8.51876761 44.97117115 12.8125 40.75 C13.70904297 39.90308594 14.60558594 39.05617187 15.52929688 38.18359375 C16.79290039 36.94029297 16.79290039 36.94029297 18.08203125 35.671875 C19.24569214 34.54410645 19.24569214 34.54410645 20.43286133 33.39355469 C22.28873855 31.04943097 22.28873855 31.04943097 21.94238281 27.93603516 C20.96236454 24.88274505 20.13001583 23.53857367 17.83984375 21.3515625 C17.21142578 20.73925781 16.58300781 20.12695312 15.93554688 19.49609375 C15.27619141 18.87863281 14.61683594 18.26117187 13.9375 17.625 C12.94266602 16.66400391 12.94266602 16.66400391 11.92773438 15.68359375 C10.29590244 14.1104608 8.65357604 12.55020766 7 11 C6.99589111 11.73114014 6.99178223 12.46228027 6.98754883 13.21557617 C6.95457791 16.54036307 6.88392853 19.86332616 6.8125 23.1875 C6.80669922 24.33798828 6.80089844 25.48847656 6.79492188 26.67382812 C6.5462586 36.20592029 6.5462586 36.20592029 3.609375 39.23828125 C0.87175343 41.08658564 -0.69279261 42 -4 42 C-6.3125 40.5625 -6.3125 40.5625 -8 39 C-7.7342546 35.10240081 -7.43693229 33.43693229 -4.625 30.625 C-2 29 -2 29 1 29 C1 19.43 1 9.86 1 0 C4.04547451 1.01515817 5.24244297 2.08463133 7.41210938 4.34619141 C9.37010033 6.38546428 11.37997389 8.36810867 13.390625 10.35546875 C15.01047605 11.96608612 16.6302662 13.57676472 18.25 15.1875 C19.07757813 16.00669922 19.90515625 16.82589844 20.7578125 17.66992188 C21.54414062 18.45302734 22.33046875 19.23613281 23.140625 20.04296875 C24.21618652 21.11067505 24.21618652 21.11067505 25.31347656 22.19995117 C27.63221742 24.67477403 27.97414562 25.79625024 28.40917969 29.22460938 C27.88619156 34.05007975 25.80349544 36.17903264 22.453125 39.40625 C21.88551453 39.97581421 21.31790405 40.54537842 20.73309326 41.13220215 C19.5342275 42.32708032 18.32674463 43.51336734 17.11132812 44.69140625 C15.2486739 46.50128853 13.42032403 48.34128539 11.59375 50.1875 C10.42377213 51.34566962 9.25195763 52.50198745 8.078125 53.65625 C7.53005188 54.20817017 6.98197876 54.76009033 6.41729736 55.32873535 C2.63651523 58.9480632 2.63651523 58.9480632 -0.01367188 59.16430664 C-3.00538482 57.41068336 -5.40078823 55.1285172 -7.859375 52.71484375 C-8.40861633 52.18033096 -8.95785767 51.64581818 -9.52374268 51.09510803 C-10.68090411 49.96186961 -11.83387533 48.82433883 -12.98291016 47.68286133 C-14.73919197 45.94817513 -16.52257651 44.24499925 -18.30859375 42.54101562 C-19.43148957 41.43411681 -20.5526433 40.32544738 -21.671875 39.21484375 C-22.20617126 38.71242661 -22.74046753 38.21000946 -23.29095459 37.69236755 C-25.95887327 34.9747746 -27.38812429 32.76352625 -27.67041016 29.00219727 C-27.33015676 24.40716954 -24.85186792 21.7897625 -21.6015625 18.75 C-21.05140472 18.20641846 -20.50124695 17.66283691 -19.93441772 17.1027832 C-18.77505861 15.96417862 -17.60625072 14.83512398 -16.42871094 13.71533203 C-14.61986353 11.99511521 -12.83953488 10.24910139 -11.0625 8.49609375 C-9.93122629 7.3916508 -8.7984642 6.28872988 -7.6640625 5.1875 C-7.12754059 4.66575195 -6.59101868 4.14400391 -6.03823853 3.60644531 C-2.23676544 0 -2.23676544 0 0 0 Z " fill="#FEFEFE" transform="translate(27,5)"/>
<path d="M0 0 C1.65 0 3.3 0 5 0 C5.33 6.27 5.66 12.54 6 19 C7.65 19.33 9.3 19.66 11 20 C14.13270409 18.40733826 14.13270409 18.40733826 14.43237305 16.12060547 C14.45855713 15.37697754 14.48474121 14.63334961 14.51171875 13.8671875 C14.54716797 13.06152344 14.58261719 12.25585938 14.61914062 11.42578125 C14.64169922 10.58402344 14.66425781 9.74226563 14.6875 8.875 C14.72166016 8.02550781 14.75582031 7.17601562 14.79101562 6.30078125 C14.87359173 4.20098895 14.93846978 2.10051436 15 0 C16.65 0 18.3 0 20 0 C20.08120751 2.89640118 20.14059421 5.79050912 20.1875 8.6875 C20.21263672 9.50412109 20.23777344 10.32074219 20.26367188 11.16210938 C20.32191481 15.95744409 20.12228027 19.10095732 17 23 C13.78144775 25.33067577 10.89509474 25.46741137 7 25 C1.42105263 21.84210526 1.42105263 21.84210526 0 19 C-0.08342159 17.55151418 -0.10732861 16.09929131 -0.09765625 14.6484375 C-0.09443359 13.79765625 -0.09121094 12.946875 -0.08789062 12.0703125 C-0.07951172 11.18085938 -0.07113281 10.29140625 -0.0625 9.375 C-0.05798828 8.4778125 -0.05347656 7.580625 -0.04882812 6.65625 C-0.03702591 4.43743352 -0.02056155 2.21874982 0 0 Z " fill="#FDFDFD" transform="translate(106,18)"/>
<path d="M0 0 C1.65 0 3.3 0 5 0 C5 3.3 5 6.6 5 10 C8.3 10 11.6 10 15 10 C15 6.7 15 3.4 15 0 C16.32 0 17.64 0 19 0 C19 7.92 19 15.84 19 24 C17.68 24 16.36 24 15 24 C15 20.7 15 17.4 15 14 C11.7 14.33 8.4 14.66 5 15 C5 17.97 5 20.94 5 24 C3.35 24 1.7 24 0 24 C0 16.08 0 8.16 0 0 Z " fill="#FEFEFE" transform="translate(173,18)"/>
<path d="M0 0 C0.33 1.65 0.66 3.3 1 5 C-1.97 4.67 -4.94 4.34 -8 4 C-6.90434094 8.38263625 -6.49271303 8.76131184 -3 11.1875 C-2.278125 11.69667969 -1.55625 12.20585937 -0.8125 12.73046875 C0.0846875 13.35888672 0.0846875 13.35888672 1 14 C2 15 2 15 2.375 17.8125 C2 21 2 21 0.0625 23.4375 C-4.1662329 25.59501679 -7.46213158 25.04308567 -12 24 C-12.66 23.67 -13.32 23.34 -14 23 C-13.67 21.68 -13.34 20.36 -13 19 C-11.88625 19.185625 -10.7725 19.37125 -9.625 19.5625 C-6.17431139 20.31680657 -6.17431139 20.31680657 -4 19 C-4.04768403 17.12119128 -4.04768403 17.12119128 -5 15 C-7.9070643 12.83973235 -7.9070643 12.83973235 -11 11 C-13 9 -13 9 -13.3125 6.0625 C-13 3 -13 3 -11.6875 1.1875 C-7.7163543 -1.60700994 -4.55630478 -0.77371213 0 0 Z " fill="#FEFEFE" transform="translate(155,18)"/>
<path d="M0 0 C1.65 0 3.3 0 5 0 C5.02505615 0.60062256 5.0501123 1.20124512 5.07592773 1.82006836 C5.1915528 4.52611437 5.31442936 7.23178283 5.4375 9.9375 C5.47681641 10.88302734 5.51613281 11.82855469 5.55664062 12.80273438 C5.59853516 13.70185547 5.64042969 14.60097656 5.68359375 15.52734375 C5.72025146 16.35999756 5.75690918 17.19265137 5.79467773 18.05053711 C5.79367103 20.00338858 5.79367103 20.00338858 7 21 C8.51469448 21.23192865 10.03754562 21.41215238 11.5625 21.5625 C12.38878906 21.64628906 13.21507813 21.73007812 14.06640625 21.81640625 C15.02353516 21.90728516 15.02353516 21.90728516 16 22 C16 23.32 16 24.64 16 26 C14.08529156 26.13547465 12.16781519 26.23220869 10.25 26.3125 C9.18265625 26.37050781 8.1153125 26.42851563 7.015625 26.48828125 C4 26 4 26 1.625 24.15625 C-0.76593692 19.51231482 -0.429432 15.32546621 -0.25 10.1875 C-0.23195313 9.20845703 -0.21390625 8.22941406 -0.1953125 7.22070312 C-0.14832887 4.81279229 -0.08265694 2.40690665 0 0 Z " fill="#FEFEFE" transform="translate(76,16)"/>
<path d="M0 0 C1.32 0.66 2.64 1.32 4 2 C4 3.98 4 5.96 4 8 C1.83125748 7.49396008 0.00032373 7.00016187 -2 6 C-1.125 1.125 -1.125 1.125 0 0 Z M0 3 C0 3.66 0 4.32 0 5 C0.66 5 1.32 5 2 5 C2 4.34 2 3.68 2 3 C1.34 3 0.68 3 0 3 Z " fill="#FFFFFF" transform="translate(117,56)"/>
<path d="M0 0 C2.125 0.9375 2.125 0.9375 4 2 C3.67 3.32 3.34 4.64 3 6 C1.125 6.625 1.125 6.625 -1 7 C-1.66 6.34 -2.32 5.68 -3 5 C-2.75 2.9375 -2.75 2.9375 -2 1 C-1.34 0.67 -0.68 0.34 0 0 Z M0 2 C0 2.99 0 3.98 0 5 C0.66 4.34 1.32 3.68 2 3 C1.34 2.67 0.68 2.34 0 2 Z " fill="#FFFFFF" transform="translate(99,56)"/>
<path d="M0 0 C0.99 0.33 1.98 0.66 3 1 C3.33 2.98 3.66 4.96 4 7 C2.35 7 0.7 7 -1 7 C-1.04254356 5.00045254 -1.04080783 2.99958364 -1 1 C-0.67 0.67 -0.34 0.34 0 0 Z " fill="#FFFFFF" transform="translate(160,56)"/>
<path d="M0 0 C1.33333333 0 2.66666667 0 4 0 C4 1.98 4 3.96 4 6 C3.01 6.33 2.02 6.66 1 7 C0.34 6.67 -0.32 6.34 -1 6 C-1.042721 4.33388095 -1.04063832 2.66617115 -1 1 C-0.67 0.67 -0.34 0.34 0 0 Z " fill="#FFFFFF" transform="translate(126,56)"/>
<path d="M0 0 C0.99 0.33 1.98 0.66 3 1 C3.33 2.65 3.66 4.3 4 6 C2 6 0 6 -2 6 C-1.34 4.02 -0.68 2.04 0 0 Z " fill="#FFFFFF" transform="translate(169,57)"/>
<path d="M0 0 C0.99 0.33 1.98 0.66 3 1 C3 2.65 3 4.3 3 6 C1.68 6.33 0.36 6.66 -1 7 C-1 4.37886292 -0.68707555 2.49064888 0 0 Z " fill="#FFFFFF" transform="translate(144,56)"/>
<path d="M0 0 C1.32 0.33 2.64 0.66 4 1 C4 2.98 4 4.96 4 7 C2.66666667 7 1.33333333 7 0 7 C0 4.69 0 2.38 0 0 Z " fill="#FFFFFF" transform="translate(107,56)"/>
<path d="M0 0 C0.99 0 1.98 0 3 0 C3 2.31 3 4.62 3 7 C2.01 7 1.02 7 0 7 C0 4.69 0 2.38 0 0 Z " fill="#FFFFFF" transform="translate(135,56)"/>
<path d="M0 0 C1.32 0 2.64 0 4 0 C3.67 2.31 3.34 4.62 3 7 C2.34 7 1.68 7 1 7 C0.67 4.69 0.34 2.38 0 0 Z " fill="#FFFFFF" transform="translate(151,56)"/>
</svg>
