<svg version="1.1" xmlns="http://www.w3.org/2000/svg" width="1099" height="370">
	<path d="M 150.600 28.509 C 145.706 29.308, 138.956 30.691, 135.600 31.584 C 132.245 32.476, 127.810 33.613, 125.745 34.109 C 120.363 35.404, 109 40.072, 109 40.989 C 109 41.417, 110.736 41.168, 112.857 40.437 C 114.979 39.706, 122.516 37.916, 129.607 36.460 C 141.703 33.975, 143.706 33.843, 162 34.324 C 186.057 34.956, 199.498 37.405, 217.330 44.406 C 254.863 59.140, 285.384 87.959, 302.994 125.291 C 308.619 137.217, 310.955 143.868, 315.126 159.836 C 317.843 170.237, 318.231 173.557, 318.705 190.500 C 319.122 205.415, 318.870 211.954, 317.534 220.917 C 315.828 232.363, 313.009 243.107, 310.363 248.250 C 309.585 249.762, 309.388 251, 309.925 251 C 311.539 251, 317.957 238.611, 321.042 229.541 C 326.613 213.161, 328.504 200.549, 328.468 180 C 328.422 154.008, 325.115 139.269, 314.411 117.352 C 304.802 97.678, 294.019 82.960, 277.870 67.474 C 257.804 48.232, 234.402 36.114, 205.500 29.999 C 192.194 27.184, 163.497 26.405, 150.600 28.509 M 155.500 91.375 C 152.760 92.549, 153.566 92.721, 164.790 93.361 C 186.443 94.594, 201.528 98.943, 215.267 107.911 C 226.208 115.054, 233.319 125.878, 236.110 139.640 C 239.153 154.647, 232.516 173.728, 219.925 186.170 C 207.031 198.912, 187.369 204.892, 171.503 200.897 C 163.302 198.831, 162.949 198.003, 182.423 226.500 C 190.542 238.381, 191.989 240.125, 193.134 239.417 C 193.610 239.123, 194 232.194, 194 224.020 L 194 209.159 196.750 208.617 C 198.262 208.319, 201.750 207.784, 204.500 207.428 C 213.271 206.293, 223.261 203.167, 231.726 198.910 C 245.348 192.058, 257.517 177.683, 260.854 164.500 C 263.759 153.022, 263.087 140.653, 258.959 129.621 C 251.605 109.965, 231 95.289, 204.786 91.035 C 195.492 89.527, 159.230 89.777, 155.500 91.375 M 40 94.298 C 40 95.351, 41.865 95.925, 46.889 96.420 C 56.114 97.329, 62.124 100.398, 63.694 105 C 65.149 109.269, 65.477 246.239, 64.046 252.407 C 62.857 257.534, 59.867 260.213, 52.250 262.976 C 48.812 264.224, 46 265.639, 46 266.122 C 46 266.609, 61.147 267, 80 267 C 101.349 267, 114 266.638, 114 266.028 C 114 265.153, 108.302 263.238, 100.664 261.547 C 96.799 260.691, 93.382 257.038, 92.088 252.378 C 91.363 249.769, 91.009 224.082, 91.006 173.867 L 91 99.233 93.250 98.630 C 97.390 97.521, 113.425 98.019, 120.270 99.469 C 129.122 101.345, 138.170 106.251, 143.092 111.842 C 153.870 124.087, 153.296 146.950, 141.897 159.423 C 133.446 168.669, 122.353 172.487, 105.813 171.841 L 97.065 171.500 101.364 176 C 106.171 181.033, 108.092 183.700, 125.851 210 C 155.084 253.292, 166 266.813, 180.807 278.067 C 187.816 283.394, 199.358 288.626, 208.500 290.621 C 214.662 291.965, 236.146 292.280, 241.500 291.105 C 244.222 290.507, 243.881 290.292, 237.817 288.779 C 225.560 285.722, 216.555 280.469, 206.483 270.500 C 201.482 265.550, 194.900 258.125, 191.856 254 C 188.812 249.875, 182.487 241.325, 177.801 235 C 173.114 228.675, 163.626 215.175, 156.715 205 C 149.805 194.825, 142.551 184.415, 140.595 181.867 L 137.038 177.234 143.629 175.578 C 159.509 171.589, 173.495 160.867, 179.307 148.225 C 181.049 144.436, 181.481 141.619, 181.489 134 C 181.499 125.752, 181.144 123.740, 178.796 118.730 C 173.818 108.107, 161.811 99.024, 147.907 95.363 C 138.816 92.970, 40 91.995, 40 94.298 M 215.416 114.301 C 221.743 122.595, 225.623 136.388, 224.631 147.055 C 223.088 163.663, 214.379 177.364, 201.489 183.462 C 191.908 187.994, 185.455 189.213, 168.263 189.738 C 159.333 190.011, 152.240 190.580, 152.502 191.003 C 152.763 191.426, 155.897 192.562, 159.467 193.528 C 168.684 196.023, 189.933 195.193, 198.324 192.010 C 216.865 184.977, 229.438 166.171, 229.419 145.500 C 229.407 131.853, 226.592 124.089, 218.348 114.963 C 214.016 110.168, 211.899 109.690, 215.416 114.301 M 573.998 116.009 C 573.999 116.290, 574.900 117.081, 576 117.768 C 577.906 118.958, 578 120.100, 578 141.952 C 578 164.518, 577.964 164.912, 575.777 166.443 C 573.697 167.900, 574.145 168, 582.777 168 C 587.850 168, 591.986 167.662, 591.968 167.250 C 591.951 166.838, 591.276 165.626, 590.468 164.559 C 589.286 162.995, 589 158.535, 589 141.623 C 589 121.648, 589.102 120.520, 591.107 118.386 L 593.215 116.142 583.605 115.821 C 578.320 115.645, 573.997 115.729, 573.998 116.009 M 618 116.667 C 611.656 118.881, 606.875 122.992, 603.449 129.176 C 600.875 133.823, 600.513 135.454, 600.606 142 C 600.771 153.745, 605.121 161.176, 614.657 166.005 C 618.887 168.148, 620.766 168.447, 629.500 168.371 C 637.365 168.303, 640.514 167.835, 644.250 166.178 C 648.834 164.145, 649 163.924, 649 159.848 L 649 155.626 646.250 158.199 C 641.804 162.359, 637.563 164, 631.262 164 C 618.346 164, 611 155.872, 611 141.582 C 611 126.112, 619.411 117.823, 633.290 119.614 C 637.772 120.193, 639.185 120.967, 643.405 125.155 C 646.102 127.833, 648.408 129.906, 648.529 129.762 C 648.650 129.618, 648.525 126.913, 648.251 123.752 L 647.753 118.004 642.695 116.502 C 636.189 114.570, 623.768 114.653, 618 116.667 M 676.212 116.444 C 675.845 117.025, 672.796 124.250, 669.435 132.500 C 658.318 159.794, 656.653 163.417, 654.170 165.719 L 651.708 168 659.509 168 C 667.003 168, 667.245 167.928, 665.655 166.171 C 663.558 163.854, 663.565 161.685, 665.693 155.750 L 667.395 151 678.591 151 L 689.787 151 692.438 157.622 C 694.944 163.881, 694.996 164.347, 693.390 166.122 C 691.738 167.947, 691.956 168, 701.034 168 L 710.377 168 708.060 165.841 C 705.779 163.717, 696.308 144.768, 688.072 125.852 C 684.024 116.554, 683.745 116.189, 680.375 115.796 C 678.452 115.571, 676.579 115.863, 676.212 116.444 M 767.875 116.074 C 767.368 116.389, 767.863 117.471, 768.976 118.479 C 770.888 120.208, 771 121.497, 771 141.700 C 771 163.078, 770.999 163.092, 768.545 165.545 L 766.091 168 780.496 168 C 797.556 168, 803.447 166.921, 809.619 162.664 C 820.804 154.949, 823.118 136.898, 814.405 125.328 C 813.092 123.583, 809.425 120.883, 806.258 119.328 C 800.863 116.678, 799.501 116.468, 784.648 116 C 775.930 115.725, 768.382 115.758, 767.875 116.074 M 845.275 115.915 C 841.525 116.871, 837.662 119.187, 833.658 122.879 C 824.101 131.693, 823.544 149.266, 832.490 159.717 C 839.022 167.348, 853.111 170.854, 864.242 167.618 C 876.341 164.101, 883.178 155.393, 883.369 143.257 C 883.568 130.589, 879.369 122.858, 869.500 117.723 C 865.100 115.434, 851.223 114.398, 845.275 115.915 M 960.499 115.833 C 960.316 116.017, 961.029 117.029, 962.083 118.083 C 963.853 119.853, 964 121.643, 964 141.365 C 964 161.465, 963.877 162.886, 961.927 165.365 L 959.855 168 969 168 L 978.145 168 976.073 165.365 C 974.120 162.883, 974 161.470, 974 140.988 C 974 122.727, 974.244 119.042, 975.524 117.980 C 976.362 117.284, 976.846 116.512, 976.598 116.264 C 976.074 115.740, 960.994 115.337, 960.499 115.833 M 979.999 115.794 C 980 115.955, 981.104 117.278, 982.454 118.734 C 983.804 120.190, 986.237 124.558, 987.860 128.441 C 996.024 147.972, 1003.140 164.659, 1003.878 166 C 1004.943 167.938, 1011.554 168.569, 1012.284 166.803 C 1025.828 134.050, 1032.692 118.946, 1034.696 117.480 C 1036.222 116.365, 1035.456 116.135, 1029.233 115.841 C 1021.808 115.491, 1020.892 115.836, 1023.500 118 C 1025.690 119.817, 1025.433 121.215, 1020.855 132.385 C 1018.576 137.948, 1015.236 146.100, 1013.433 150.500 C 1010.880 156.732, 1010.006 158.058, 1009.478 156.500 C 1009.106 155.400, 1006.218 148.200, 1003.061 140.500 C 994.266 119.053, 994.704 120.422, 995.916 118.156 C 996.512 117.043, 996.999 115.989, 996.998 115.816 C 996.997 115.642, 993.171 115.500, 988.497 115.500 C 983.823 115.500, 979.999 115.632, 979.999 115.794 M 1048.096 116.820 C 1047.561 117.821, 1045.776 121.983, 1044.130 126.070 C 1036.772 144.338, 1028.002 163.369, 1025.922 165.583 L 1023.651 168 1030.826 168 C 1037.519 168, 1039.983 166.975, 1036.500 165.638 C 1034.418 164.839, 1034.613 162.374, 1037.244 156.242 L 1039.500 150.983 1050.960 151.242 L 1062.420 151.500 1064.900 157.832 C 1066.929 163.014, 1067.162 164.511, 1066.181 166.082 C 1065.033 167.920, 1065.363 168, 1074.138 168 L 1083.292 168 1080.719 165.615 C 1078.234 163.312, 1072.143 151.326, 1060.971 126.750 C 1055.731 115.225, 1055.566 115, 1052.350 115 C 1050.202 115, 1048.734 115.628, 1048.096 116.820 M 369.750 117.963 C 371.947 120.028, 372 120.581, 372 141.404 C 372 161.730, 371.899 162.859, 369.844 165.471 L 367.688 168.212 384.094 167.823 C 398.504 167.481, 401.107 167.158, 405.488 165.168 C 414.851 160.914, 418.995 154.740, 419.775 143.884 C 420.395 135.246, 418.222 128.576, 413.231 123.794 C 406.147 117.008, 404.422 116.543, 385 116.177 L 367.500 115.848 369.750 117.963 M 427.457 117.543 C 429.301 118.937, 429.410 120.325, 429.357 141.680 C 429.302 163.972, 429.264 164.367, 427.040 166.169 C 424.811 167.973, 424.920 168, 434.462 168 L 444.145 168 442.073 165.365 C 440.351 163.176, 440 161.314, 440 154.365 L 440 146 442.763 146 C 445.056 146, 446.675 147.489, 452.274 154.750 C 463.231 168.960, 462.026 168, 468.910 168 C 472.260 168, 475 167.820, 475 167.600 C 475 167.380, 473.538 165.683, 471.750 163.828 C 466.928 158.826, 456 145.714, 456 144.930 C 456 144.556, 457.392 143.972, 459.094 143.631 C 460.795 143.291, 463.720 141.480, 465.594 139.606 C 468.636 136.564, 469 135.617, 469 130.748 C 469 124.011, 466.036 119.053, 460.965 117.306 C 458.858 116.581, 451.229 116.103, 441.500 116.088 C 427.165 116.066, 425.704 116.218, 427.457 117.543 M 520.345 117.829 C 521.780 119.414, 522 122.597, 522 141.757 C 522 160.068, 521.743 164.114, 520.500 165.357 C 519.675 166.182, 519 167.114, 519 167.429 C 519 167.743, 523.135 168, 528.189 168 L 537.377 168 535.189 165.961 C 533.252 164.157, 533 162.892, 533 154.961 L 533 146 535.953 146 C 537.998 146, 539.459 146.794, 540.703 148.583 C 542.508 151.177, 548.763 158.695, 554.155 164.750 C 556.885 167.816, 557.429 167.998, 563.774 167.968 L 570.500 167.937 567.847 165.955 C 566.388 164.866, 562.111 160.268, 558.343 155.737 C 551.147 147.086, 547.997 143.022, 549.407 144.207 C 550.552 145.170, 556.964 141.769, 559.866 138.660 C 565.469 132.655, 563.013 122.272, 555.038 118.250 C 550.968 116.197, 549.178 116, 534.633 116 C 519.251 116, 518.748 116.064, 520.345 117.829 M 715.345 117.829 C 716.782 119.417, 717 122.628, 717 142.207 C 717 164.460, 716.970 164.777, 714.750 166.326 C 712.635 167.801, 713.064 167.898, 721.905 167.948 L 731.310 168 729.461 165.957 C 728.044 164.391, 727.513 161.854, 727.190 155.094 L 726.769 146.275 729.505 145.588 C 731.605 145.061, 732.566 145.363, 733.633 146.886 C 734.397 147.978, 738.422 153.175, 742.577 158.436 L 750.131 168 756.649 168 L 763.167 168 756.242 160.484 C 752.433 156.351, 747.906 151.005, 746.182 148.605 L 743.048 144.240 746.108 143.628 C 756.071 141.636, 760.235 129.654, 753.806 121.480 C 750.123 116.798, 746.565 116, 729.377 116 C 714.243 116, 713.748 116.064, 715.345 117.829 M 911.806 118.276 C 914.089 120.723, 914.109 120.968, 913.806 142.456 C 913.534 161.761, 913.306 164.306, 911.750 165.442 C 910.788 166.145, 910 167.008, 910 167.360 C 910 167.712, 914.120 168, 919.155 168 L 928.310 168 926.405 165.896 C 924.908 164.244, 924.426 161.916, 924.156 155.038 L 923.812 146.282 933.304 145.786 C 940.886 145.389, 943.543 144.827, 946.513 142.992 C 955.076 137.700, 955.210 123.630, 946.746 118.553 C 943.956 116.879, 941.114 116.550, 926.500 116.205 L 909.500 115.805 911.806 118.276 M 848.741 120.429 C 843.639 122.250, 842.509 123.337, 839.548 129.279 C 835.861 136.679, 835.941 146.570, 839.750 154.020 C 843.047 160.468, 846.344 163.066, 852.397 163.984 C 864.364 165.801, 873.010 156.524, 872.994 141.884 C 872.991 138.923, 872.511 134.781, 871.928 132.679 C 870.486 127.488, 864.955 121.603, 860.171 120.169 C 855.286 118.706, 853.454 118.747, 848.741 120.429 M 382 141.393 C 382 164.735, 381.808 164, 387.900 164 C 396.342 164, 403.717 159.501, 407.569 152 C 410.270 146.742, 409.950 136.489, 406.895 130.346 C 403.686 123.894, 396.532 120, 387.886 120 L 382 120 382 141.393 M 440 130.384 L 440 141 446.577 141 C 452.486 141, 453.445 140.708, 456.026 138.128 C 464.089 130.065, 459.269 120.994, 446.489 120.180 L 440 119.767 440 130.384 M 533 131.142 L 533 142.285 538.895 141.669 C 546.378 140.887, 549.780 139.327, 551.575 135.855 C 556.012 127.275, 550.035 120, 538.550 120 L 533 120 533 131.142 M 727 130.500 L 727 141 733.066 141 C 742.125 141, 746.934 137.646, 746.978 131.297 C 747.030 123.747, 742.261 120, 732.599 120 L 727 120 727 130.500 M 781.114 138.941 C 781.240 163.768, 781.147 163.436, 788.068 163.732 C 795.189 164.036, 801.433 160.994, 805.399 155.287 C 807.896 151.694, 808.381 149.929, 808.698 143.287 C 809.015 136.656, 808.730 134.854, 806.779 131.146 C 805.519 128.751, 802.598 125.422, 800.288 123.748 C 796.732 121.172, 794.929 120.631, 788.552 120.222 L 781.018 119.738 781.114 138.941 M 924.216 130.750 L 924.500 141.500 929.396 141.811 C 935.010 142.167, 939.433 140.648, 941.540 137.640 C 943.250 135.197, 943.472 127.750, 941.920 124.850 C 940.413 122.035, 934.990 120, 928.998 120 L 923.932 120 924.216 130.750 M 674.214 134.314 C 671.896 140.114, 670 145.116, 670 145.430 C 670 145.743, 673.825 146, 678.500 146 C 683.175 146, 687 145.815, 687 145.589 C 687 145.362, 685.374 141.425, 683.387 136.839 C 681.399 132.252, 679.471 127.436, 679.101 126.135 C 678.547 124.189, 677.681 125.639, 674.214 134.314 M 1046.232 134.330 C 1043.887 139.924, 1041.976 144.838, 1041.985 145.250 C 1041.993 145.662, 1046.003 146, 1050.895 146 L 1059.790 146 1055.262 135.250 C 1052.772 129.338, 1050.681 124.424, 1050.615 124.330 C 1050.548 124.237, 1048.576 128.737, 1046.232 134.330 M 484.655 158.829 C 482.719 160.968, 482.484 165.084, 484.200 166.800 C 484.860 167.460, 486.795 168, 488.500 168 C 492.297 168, 494 166.437, 494 162.955 C 494 157.817, 487.977 155.158, 484.655 158.829 M 910.532 194.949 C 909.689 196.311, 912.463 197.401, 914.750 196.605 C 916.147 196.119, 916.083 196.352, 914.437 197.757 C 913.302 198.726, 911.098 202.214, 909.540 205.509 C 907.982 208.804, 905.648 213.179, 904.354 215.230 C 901.534 219.699, 901.496 220, 903.763 220 C 904.732 220, 905.970 218.988, 906.513 217.750 C 907.361 215.816, 908.378 215.458, 913.750 215.202 C 919.608 214.923, 920.072 215.064, 921.160 217.452 C 921.819 218.899, 923.153 220, 924.247 220 C 925.966 220, 925.770 219.278, 922.413 213.250 C 920.345 209.537, 917.837 205.033, 916.838 203.239 C 915.070 200.064, 915.074 199.926, 916.974 198.026 C 919.143 195.857, 918.899 195.535, 914.345 194.559 C 912.461 194.155, 910.925 194.312, 910.532 194.949 M 522.619 201.034 C 515.157 203.269, 512.535 211.022, 517.349 216.620 C 519.306 218.894, 520.684 219.418, 525.599 219.754 C 529.797 220.041, 532.077 219.725, 533.498 218.660 C 536.356 216.520, 534.749 215.598, 530.567 216.978 C 521.277 220.044, 514.160 211.749, 520.576 205.333 C 522.756 203.153, 523.793 202.836, 527.326 203.268 C 529.622 203.549, 532.288 204.102, 533.250 204.497 C 534.461 204.993, 535 204.749, 535 203.705 C 535 202.184, 530.071 199.926, 527.101 200.086 C 526.220 200.133, 524.204 200.560, 522.619 201.034 M 619.962 200.281 C 619.940 200.402, 619.828 203.578, 619.712 207.339 C 619.528 213.263, 619.170 214.445, 617.037 216.172 C 615.283 217.592, 613.729 217.996, 611.633 217.577 C 606.719 216.594, 606 215.355, 606 207.878 C 606 201.902, 605.762 201, 604.186 201 C 602.589 201, 602.416 201.747, 602.735 207.250 C 603.260 216.288, 603.664 217.526, 606.523 218.829 C 609.289 220.089, 615.820 220.390, 618.455 219.379 C 621.168 218.338, 623 213.412, 623 207.157 C 623 202.797, 622.600 201.061, 621.500 200.638 C 620.675 200.322, 619.983 200.161, 619.962 200.281 M 642.250 200.807 L 638 201.115 638 210.557 C 638 219.333, 638.141 220, 640 220 C 641.619 220, 642 219.333, 642 216.500 C 642 213.265, 642.231 213, 645.050 213 C 647.182 213, 649.183 214.053, 651.703 216.500 C 657.247 221.884, 659.844 221.003, 654.849 215.433 C 653.033 213.408, 653.047 213.320, 655.497 211.189 C 658.324 208.732, 658.768 204.882, 656.447 202.956 C 654.554 201.385, 647.992 200.392, 642.250 200.807 M 677.327 201.553 C 667.998 205.639, 669.415 217.674, 679.447 219.556 C 683.758 220.365, 689.595 219.581, 691.589 217.926 C 692.365 217.282, 693 215.235, 693 213.378 C 693 210.041, 692.945 210, 688.500 210 C 686.025 210, 684 210.450, 684 211 C 684 211.550, 685.125 212, 686.500 212 C 688.495 212, 689 212.501, 689 214.481 C 689 218.950, 680.931 219.121, 676.250 214.752 C 673.254 211.955, 673.411 208.862, 676.718 205.555 C 679.051 203.222, 680.079 202.894, 683.968 203.241 C 686.461 203.463, 689.288 203.998, 690.250 204.430 C 691.472 204.977, 692 204.777, 692 203.765 C 692 202.289, 685.846 199.932, 682.384 200.082 C 681.348 200.126, 679.072 200.789, 677.327 201.553 M 731.270 209.250 C 728.657 214.338, 726.365 218.838, 726.176 219.250 C 725.988 219.662, 726.555 220, 727.438 220 C 728.321 220, 729.555 218.875, 730.182 217.500 C 731.207 215.250, 731.904 215, 737.137 215 C 742.238 215, 743.155 215.308, 744.592 217.500 C 746.223 219.989, 749 220.922, 749 218.980 C 749 218.419, 747.936 216.275, 746.636 214.216 C 745.336 212.157, 743.079 208.116, 741.620 205.236 C 740.160 202.356, 738.303 200, 737.493 200 C 736.644 200, 734.007 203.919, 731.270 209.250 M 816.148 210.090 C 812.175 218.175, 811.591 220, 812.979 220 C 813.914 220, 815.192 218.875, 815.818 217.500 C 816.830 215.278, 817.564 215, 822.407 215 C 827.645 215, 830.236 216.207, 831.199 219.096 C 831.406 219.719, 832.320 220.064, 833.229 219.864 C 834.593 219.564, 833.973 217.850, 829.691 210.086 C 826.570 204.426, 823.806 200.574, 822.759 200.426 C 821.462 200.242, 819.778 202.704, 816.148 210.090 M 882.878 203.313 C 881.570 205.046, 879.663 207.802, 878.641 209.436 L 876.781 212.408 873.849 208.954 C 872.236 207.054, 870.496 204.488, 869.983 203.250 C 869.450 201.965, 868.181 201, 867.025 201 C 865.134 201, 865 201.628, 865 210.500 C 865 219.008, 865.189 220, 866.814 220 C 868.409 220, 868.576 219.288, 868.200 214.091 C 867.965 210.841, 867.950 207.649, 868.167 206.999 C 868.384 206.348, 870.123 208.106, 872.031 210.906 C 873.939 213.706, 875.950 215.996, 876.500 215.996 C 877.050 215.996, 879.075 213.681, 881 210.852 L 884.500 205.707 884.794 212.853 C 885.018 218.309, 885.432 220, 886.544 220 C 887.715 220, 888 218.164, 888 210.607 C 888 199.850, 886.791 198.128, 882.878 203.313 M 944.313 201.102 C 938.388 202.817, 935.231 209.826, 938.030 215.055 C 941.532 221.599, 956.127 221.522, 959.530 214.941 C 962.662 208.885, 959.944 202.912, 953.205 201.040 C 948.947 199.858, 948.607 199.860, 944.313 201.102 M 549 210.500 C 549 218.278, 549.272 220, 550.500 220 C 551.728 220, 552 218.278, 552 210.500 C 552 202.722, 551.728 201, 550.500 201 C 549.272 201, 549 202.722, 549 210.500 M 568.705 206.750 C 568.819 209.912, 568.932 214.188, 568.956 216.250 C 568.987 218.897, 569.441 220, 570.500 220 C 571.548 220, 572 218.944, 572 216.500 C 572 213.204, 572.193 213, 575.316 213 C 577.849 213, 579.364 213.827, 581.731 216.500 C 583.435 218.425, 585.596 220, 586.533 220 C 587.938 220, 587.744 219.353, 585.426 216.314 C 583.583 213.898, 583.032 212.489, 583.825 212.225 C 586.103 211.466, 588 208.858, 588 206.485 C 588 202.604, 584.499 201, 576.027 201 L 568.498 201 568.705 206.750 M 708 210.500 C 708 218.881, 708.206 220, 709.750 220 C 711.294 220.001, 711.500 218.882, 711.500 210.502 C 711.500 202.122, 711.294 201.002, 709.750 201.001 C 708.206 201, 708 202.119, 708 210.500 M 779 210.500 L 779 220 785.550 220 C 795.677 220, 800.018 216.938, 799.985 209.816 C 799.955 203.450, 796.146 201, 786.277 201 L 779 201 779 210.500 M 572 207 L 572 211 576.066 211 C 580.604 211, 583.477 209.804, 584.340 207.557 C 585.346 204.934, 582.200 203, 576.929 203 L 572 203 572 207 M 641.719 203.750 C 641.499 204.162, 641.397 205.850, 641.492 207.500 C 641.651 210.267, 641.986 210.524, 645.794 210.806 C 648.065 210.974, 650.841 210.620, 651.962 210.020 C 654.795 208.504, 654.660 204.410, 651.750 203.630 C 648.575 202.779, 642.195 202.856, 641.719 203.750 M 782 209.876 L 782 217 787.500 217 C 793.894 217, 797 214.762, 797 210.155 C 797 206.005, 793.896 203.739, 787.485 203.207 L 782 202.752 782 209.876 M 944.242 204.034 C 941.340 205.200, 939.563 209.122, 940.409 212.492 C 941.966 218.699, 954.783 219.331, 957.071 213.314 C 959.630 206.584, 951.869 200.969, 944.242 204.034 M 911.685 207.534 C 909.364 212.402, 909.465 212.604, 914 212.171 C 916.200 211.962, 918 211.553, 918 211.263 C 918 210.668, 913.964 204, 913.604 204 C 913.475 204, 912.612 205.590, 911.685 207.534 M 735.526 207.950 C 733.329 212.198, 733.556 212.595, 737.937 212.177 L 741.873 211.802 740.251 208.401 C 738.265 204.236, 737.485 204.162, 735.526 207.950 M 820.614 208.401 C 818.497 212.862, 818.532 213.003, 821.750 212.985 C 826.472 212.958, 827.347 211.770, 825.297 208.169 C 824.308 206.433, 823.214 205.010, 822.864 205.006 C 822.514 205.003, 821.502 206.531, 820.614 208.401 M 367.416 209.917 C 367.187 210.146, 367 210.708, 367 211.167 C 367 211.625, 395.350 212, 430 212 C 470.700 212, 493 211.651, 493 211.015 C 493 210.064, 368.359 208.974, 367.416 209.917 M 980.173 211.019 C 980.643 212.429, 1084.357 212.429, 1084.827 211.019 C 1085.055 210.336, 1067.805 210, 1032.500 210 C 997.195 210, 979.945 210.336, 980.173 211.019 M 13.250 249.220 C 10.151 250.715, 10.405 253.315, 14.482 261.821 C 22.115 277.750, 34.800 294.812, 52.405 312.833 C 63.836 324.532, 70.961 330.345, 82.498 337.379 C 113.860 356.503, 139.472 363.987, 173.574 363.996 C 197.800 364.002, 214.567 360.454, 234.539 351.095 C 258.970 339.646, 273.919 325.280, 298.111 290 C 309.405 273.529, 312 268.680, 312 264.042 C 312 252.596, 295.103 249.307, 285.279 258.840 C 283.751 260.323, 278 266.674, 272.500 272.953 C 261.497 285.515, 261.818 285.177, 250.201 296.355 L 242.037 304.210 244.267 306.015 C 246.294 307.656, 246.813 307.688, 249.998 306.365 C 254.379 304.545, 265.421 294.081, 277.821 280 C 287.408 269.112, 294.861 262.073, 297.503 261.410 C 300.420 260.678, 303.998 262.536, 304.005 264.785 C 304.013 267.108, 291.064 286.119, 280.702 299 C 270.791 311.320, 256.957 324.919, 248.498 330.657 C 221.108 349.238, 179.804 356.542, 145 348.961 C 119.408 343.386, 91.304 329.435, 68.688 311.079 C 65.014 308.097, 62.119 305.562, 62.254 305.444 C 62.389 305.326, 65.425 305.664, 69 306.195 C 78.395 307.589, 95.219 306.488, 102.842 303.979 C 106.331 302.831, 114.656 299.484, 121.342 296.542 C 138.022 289.203, 146.461 287.433, 157.378 288.983 C 162.260 289.676, 169.228 291.612, 174.120 293.635 C 202.118 305.212, 209.628 307.547, 222.373 308.636 C 231.445 309.411, 235.788 311.941, 234.580 315.747 C 232.828 321.269, 221.670 321.033, 195.943 314.928 C 183.861 312.062, 177.220 311, 171.374 311 C 164.050 311, 153.660 313.081, 151.701 314.940 C 151.261 315.357, 154.284 315.984, 158.418 316.334 C 167.560 317.106, 179.429 319.430, 187.500 322.027 C 198.291 325.500, 208.102 327.034, 220.002 327.110 C 230.594 327.177, 232.173 326.946, 236.653 324.676 C 250.601 317.608, 243.168 301, 226.057 301 C 214.563 301, 204.591 298.116, 185.569 289.290 C 170.286 282.198, 159.608 279, 151.214 279 C 142.802 279, 128.596 282.748, 116.974 288.034 C 103.563 294.133, 96.926 295.895, 84.479 296.660 C 73.036 297.363, 66.574 295.984, 56.662 290.725 C 48.914 286.614, 38.001 275.688, 30 264.029 C 23.373 254.374, 17.877 247.946, 16.350 248.068 C 15.883 248.105, 14.488 248.624, 13.250 249.220" stroke="none" fill="#FFFFFF" fill-rule="evenodd"/>
</svg>